<?xml version="1.0" ?><!DOCTYPE svg  PUBLIC '-//W3C//DTD SVG 1.1//EN'  'http://www.w3.org/Graphics/SVG/1.1/DTD/svg11.dtd'><svg enable-background="new 0 0 500 500" height="500px" id="Layer_1" version="1.1" viewBox="0 0 500 500" width="500px" xml:space="preserve" xmlns="http://www.w3.org/2000/svg" xmlns:xlink="http://www.w3.org/1999/xlink"><path clip-rule="evenodd" d="M433.704,261.537c4.456-6.087,7.092-13.541,7.092-21.623  c0-20.079-16.266-36.343-36.344-36.343h-36.341c-9.991,0-18.173-8.171-18.173-18.17V76.375c0-20.079-16.262-36.342-36.341-36.342  H186.4c-20.079,0-36.34,16.264-36.34,36.342v109.025c0,10-8.181,18.17-18.172,18.17H95.547c-20.079,0-36.342,16.264-36.342,36.343  c0,8.083,2.635,15.536,7.08,21.623L217.747,444.61c17.807,17.81,46.695,17.81,64.505,0L433.704,261.537z" fill="#010101" fill-rule="evenodd"/></svg>