<?xml version="1.0" ?><!DOCTYPE svg  PUBLIC '-//W3C//DTD SVG 1.1//EN'  'http://www.w3.org/Graphics/SVG/1.1/DTD/svg11.dtd'><svg enable-background="new 0 0 500 500" height="500px" id="Layer_1" version="1.1" viewBox="0 0 500 500" width="500px" xml:space="preserve" xmlns="http://www.w3.org/2000/svg" xmlns:xlink="http://www.w3.org/1999/xlink"><path clip-rule="evenodd" d="M262.537,66.293c-6.086-4.454-13.54-7.088-21.623-7.088  c-20.079,0-36.34,16.264-36.34,36.342v36.341c0,10-8.181,18.172-18.172,18.172H77.376c-20.079,0-36.342,16.262-36.342,36.34v127.197  c0,20.079,16.264,36.341,36.342,36.341h109.025c9.991,0,18.172,8.182,18.172,18.173v36.341c0,20.078,16.262,36.344,36.34,36.344  c8.083,0,15.537-2.636,21.623-7.092l183.066-151.452c17.817-17.81,17.817-46.698,0-64.505L262.537,66.293z" fill="#010101" fill-rule="evenodd"/></svg>