<?xml version="1.0" ?><!DOCTYPE svg  PUBLIC '-//W3C//DTD SVG 1.1//EN'  'http://www.w3.org/Graphics/SVG/1.1/DTD/svg11.dtd'><svg enable-background="new 0 0 500 500" height="500px" id="Layer_1" version="1.1" viewBox="0 0 500 500" width="500px" xml:space="preserve" xmlns="http://www.w3.org/2000/svg" xmlns:xlink="http://www.w3.org/1999/xlink"><path clip-rule="evenodd" d="M433.704,237.465c4.456,6.086,7.092,13.539,7.092,21.622  c0,20.079-16.266,36.341-36.344,36.341h-36.341c-9.991,0-18.173,8.18-18.173,18.172v109.025c0,20.079-16.262,36.341-36.341,36.341  H186.4c-20.079,0-36.34-16.262-36.34-36.341V313.6c0-9.992-8.181-18.172-18.172-18.172H95.547  c-20.079,0-36.342-16.262-36.342-36.341c0-8.083,2.635-15.536,7.08-21.622L217.747,54.388c17.807-17.808,46.695-17.808,64.505,0  L433.704,237.465z" fill="#010101" fill-rule="evenodd"/></svg>